#tb 0: 1/25
#media_type 0: video
#codec_id 0: rawvideo
#dimensions 0: 176x288
#sar 0: 0/1
0,          0,          0,        1,   152064, 0xd6bdf333
0,          1,          1,        1,   152064, 0xd91354c2
0,          2,          2,        1,   152064, 0x6e32fe7d
0,          3,          3,        1,   152064, 0x431ccff7
0,          4,          4,        1,   152064, 0x9c845527
